<svg width="100" height="61" viewBox="0 0 100 61" fill="none" xmlns="http://www.w3.org/2000/svg">
<mask id="mask0_1478_466" style="mask-type:luminance" maskUnits="userSpaceOnUse" x="8" y="0" width="43" height="47">
<path d="M8 0.0839844H50.6667V46.0007H8V0.0839844Z" fill="white"/>
</mask>
<g mask="url(#mask0_1478_466)">
<path d="M30.0628 32.3236L34.9691 23.8288L38.1878 29.4069C42.0055 28.209 46.0055 27.1934 50.141 26.3652L34.9691 0.0839844L17.5472 30.2559L9.21387 44.6986C14.8701 39.8132 21.943 35.6361 30.0628 32.3236Z" fill="white"/>
</g>
<mask id="mask1_1478_466" style="mask-type:luminance" maskUnits="userSpaceOnUse" x="0" y="26" width="100" height="35">
<path d="M0.104492 26H99.1045V60.0833H0.104492V26Z" fill="white"/>
</mask>
<g mask="url(#mask1_1478_466)">
<path d="M89.1569 26.9319C48.1934 23.4736 10.8132 37.9267 0.130859 60.4267H13.8392C21.0215 52.1142 31.3184 44.7392 43.8132 39.1455L45.985 42.9007L56.0996 60.4267H69.8079L55.0163 34.8069C62.0892 32.4736 69.6777 30.6715 77.6569 29.5309C85.1413 28.458 92.4694 28.0465 99.5163 28.2028C96.1309 27.6663 92.6777 27.2288 89.1569 26.9319Z" fill="white"/>
</g>
</svg>
