<svg xmlns="http://www.w3.org/2000/svg" xmlns:xlink="http://www.w3.org/1999/xlink" width="500" zoomAndPan="magnify" viewBox="0 0 375 374.999991" height="500" preserveAspectRatio="xMidYMid meet" version="1.0"><defs><g/><clipPath id="07c9a92d83"><path d="M 84 154.5625 L 116 154.5625 L 116 189 L 84 189 Z M 84 154.5625 " clip-rule="nonzero"/></clipPath><clipPath id="c21478441f"><path d="M 78.078125 174 L 152.328125 174 L 152.328125 199.5625 L 78.078125 199.5625 Z M 78.078125 174 " clip-rule="nonzero"/></clipPath></defs><g clip-path="url(#07c9a92d83)"><path fill="#000000" d="M 100.546875 178.742188 L 104.226562 172.371094 L 106.640625 176.554688 C 109.503906 175.65625 112.503906 174.894531 115.605469 174.273438 L 104.226562 154.5625 L 91.160156 177.191406 L 84.910156 188.023438 C 89.152344 184.359375 94.457031 181.226562 100.546875 178.742188 " fill-opacity="1" fill-rule="nonzero"/></g><g clip-path="url(#c21478441f)"><path fill="#000000" d="M 144.867188 174.699219 C 114.144531 172.105469 86.109375 182.945312 78.097656 199.820312 L 88.378906 199.820312 C 93.765625 193.585938 101.488281 188.054688 110.859375 183.859375 L 112.488281 186.675781 L 120.074219 199.820312 L 130.355469 199.820312 L 119.261719 180.605469 C 124.566406 178.855469 130.257812 177.503906 136.242188 176.648438 C 141.855469 175.84375 147.351562 175.535156 152.636719 175.652344 C 150.097656 175.25 147.507812 174.921875 144.867188 174.699219 " fill-opacity="1" fill-rule="nonzero"/></g><g fill="#000000" fill-opacity="1"><g transform="translate(127.628172, 198.581173)"><g><path d="M 10.671875 0.46875 C 9.078125 0.46875 7.710938 0.210938 6.578125 -0.296875 C 5.453125 -0.816406 4.535156 -1.519531 3.828125 -2.40625 C 3.128906 -3.300781 2.613281 -4.316406 2.28125 -5.453125 C 1.945312 -6.597656 1.78125 -7.789062 1.78125 -9.03125 C 1.78125 -10.414062 1.957031 -11.703125 2.3125 -12.890625 C 2.675781 -14.078125 3.21875 -15.125 3.9375 -16.03125 C 4.664062 -16.9375 5.578125 -17.644531 6.671875 -18.15625 C 7.765625 -18.664062 9.03125 -18.921875 10.46875 -18.921875 C 11.53125 -18.921875 12.5 -18.773438 13.375 -18.484375 C 14.257812 -18.203125 15.03125 -17.800781 15.6875 -17.28125 C 16.34375 -16.757812 16.875 -16.128906 17.28125 -15.390625 C 17.6875 -14.648438 17.957031 -13.828125 18.09375 -12.921875 L 15 -12.0625 C 14.945312 -12.78125 14.75 -13.445312 14.40625 -14.0625 C 14.0625 -14.6875 13.554688 -15.191406 12.890625 -15.578125 C 12.222656 -15.972656 11.398438 -16.171875 10.421875 -16.171875 C 9.566406 -16.171875 8.8125 -16.003906 8.15625 -15.671875 C 7.5 -15.335938 6.941406 -14.859375 6.484375 -14.234375 C 6.035156 -13.617188 5.6875 -12.882812 5.4375 -12.03125 C 5.1875 -11.175781 5.0625 -10.203125 5.0625 -9.109375 C 5.0625 -7.679688 5.269531 -6.453125 5.6875 -5.421875 C 6.101562 -4.398438 6.734375 -3.613281 7.578125 -3.0625 C 8.429688 -2.519531 9.476562 -2.25 10.71875 -2.25 C 11.707031 -2.25 12.546875 -2.425781 13.234375 -2.78125 C 13.929688 -3.144531 14.472656 -3.644531 14.859375 -4.28125 C 15.253906 -4.925781 15.515625 -5.675781 15.640625 -6.53125 L 18.59375 -5.890625 C 18.457031 -4.867188 18.164062 -3.957031 17.71875 -3.15625 C 17.28125 -2.363281 16.722656 -1.695312 16.046875 -1.15625 C 15.367188 -0.625 14.578125 -0.222656 13.671875 0.046875 C 12.765625 0.328125 11.765625 0.46875 10.671875 0.46875 Z M 10.671875 0.46875 "/></g></g></g><g fill="#000000" fill-opacity="1"><g transform="translate(145.981101, 198.581173)"><g><path d="M 10.671875 0.46875 C 9.078125 0.46875 7.710938 0.210938 6.578125 -0.296875 C 5.453125 -0.816406 4.535156 -1.519531 3.828125 -2.40625 C 3.128906 -3.300781 2.613281 -4.316406 2.28125 -5.453125 C 1.945312 -6.597656 1.78125 -7.789062 1.78125 -9.03125 C 1.78125 -10.414062 1.957031 -11.703125 2.3125 -12.890625 C 2.675781 -14.078125 3.21875 -15.125 3.9375 -16.03125 C 4.664062 -16.9375 5.578125 -17.644531 6.671875 -18.15625 C 7.765625 -18.664062 9.03125 -18.921875 10.46875 -18.921875 C 11.53125 -18.921875 12.5 -18.773438 13.375 -18.484375 C 14.257812 -18.203125 15.03125 -17.800781 15.6875 -17.28125 C 16.34375 -16.757812 16.875 -16.128906 17.28125 -15.390625 C 17.6875 -14.648438 17.957031 -13.828125 18.09375 -12.921875 L 15 -12.0625 C 14.945312 -12.78125 14.75 -13.445312 14.40625 -14.0625 C 14.0625 -14.6875 13.554688 -15.191406 12.890625 -15.578125 C 12.222656 -15.972656 11.398438 -16.171875 10.421875 -16.171875 C 9.566406 -16.171875 8.8125 -16.003906 8.15625 -15.671875 C 7.5 -15.335938 6.941406 -14.859375 6.484375 -14.234375 C 6.035156 -13.617188 5.6875 -12.882812 5.4375 -12.03125 C 5.1875 -11.175781 5.0625 -10.203125 5.0625 -9.109375 C 5.0625 -7.679688 5.269531 -6.453125 5.6875 -5.421875 C 6.101562 -4.398438 6.734375 -3.613281 7.578125 -3.0625 C 8.429688 -2.519531 9.476562 -2.25 10.71875 -2.25 C 11.707031 -2.25 12.546875 -2.425781 13.234375 -2.78125 C 13.929688 -3.144531 14.472656 -3.644531 14.859375 -4.28125 C 15.253906 -4.925781 15.515625 -5.675781 15.640625 -6.53125 L 18.59375 -5.890625 C 18.457031 -4.867188 18.164062 -3.957031 17.71875 -3.15625 C 17.28125 -2.363281 16.722656 -1.695312 16.046875 -1.15625 C 15.367188 -0.625 14.578125 -0.222656 13.671875 0.046875 C 12.765625 0.328125 11.765625 0.46875 10.671875 0.46875 Z M 10.671875 0.46875 "/></g></g></g><g fill="#000000" fill-opacity="1"><g transform="translate(164.334029, 198.581173)"><g><path d="M 10.71875 0.46875 C 9.238281 0.46875 7.941406 0.25 6.828125 -0.1875 C 5.722656 -0.632812 4.796875 -1.273438 4.046875 -2.109375 C 3.296875 -2.941406 2.722656 -3.929688 2.328125 -5.078125 C 1.941406 -6.234375 1.75 -7.515625 1.75 -8.921875 C 1.75 -10.378906 1.9375 -11.710938 2.3125 -12.921875 C 2.695312 -14.140625 3.257812 -15.191406 4 -16.078125 C 4.738281 -16.972656 5.640625 -17.671875 6.703125 -18.171875 C 7.773438 -18.671875 9.003906 -18.921875 10.390625 -18.921875 C 11.628906 -18.921875 12.738281 -18.710938 13.71875 -18.296875 C 14.707031 -17.878906 15.550781 -17.253906 16.25 -16.421875 C 16.957031 -15.585938 17.488281 -14.539062 17.84375 -13.28125 C 18.207031 -12.019531 18.351562 -10.53125 18.28125 -8.8125 L 3.8125 -8.71875 L 3.8125 -10.921875 L 16.25 -11.03125 L 15.171875 -9.53125 C 15.296875 -11.007812 15.160156 -12.234375 14.765625 -13.203125 C 14.367188 -14.179688 13.796875 -14.921875 13.046875 -15.421875 C 12.296875 -15.921875 11.410156 -16.171875 10.390625 -16.171875 C 9.296875 -16.171875 8.335938 -15.882812 7.515625 -15.3125 C 6.691406 -14.738281 6.050781 -13.914062 5.59375 -12.84375 C 5.144531 -11.78125 4.921875 -10.488281 4.921875 -8.96875 C 4.921875 -6.769531 5.414062 -5.09375 6.40625 -3.9375 C 7.394531 -2.789062 8.84375 -2.21875 10.75 -2.21875 C 11.507812 -2.21875 12.164062 -2.3125 12.71875 -2.5 C 13.28125 -2.6875 13.757812 -2.941406 14.15625 -3.265625 C 14.550781 -3.585938 14.875 -3.96875 15.125 -4.40625 C 15.375 -4.84375 15.554688 -5.3125 15.671875 -5.8125 L 18.5625 -5.21875 C 18.351562 -4.332031 18.03125 -3.535156 17.59375 -2.828125 C 17.164062 -2.128906 16.625 -1.535156 15.96875 -1.046875 C 15.320312 -0.566406 14.554688 -0.195312 13.671875 0.0625 C 12.796875 0.332031 11.8125 0.46875 10.71875 0.46875 Z M 10.71875 0.46875 "/></g></g></g><g fill="#000000" fill-opacity="1"><g transform="translate(183.186851, 198.581173)"><g><path d="M 2.71875 0 L 2.71875 -24.921875 L 5.96875 -24.921875 L 5.96875 0 Z M 2.71875 0 "/></g></g></g><g fill="#000000" fill-opacity="1"><g transform="translate(190.685129, 198.581173)"><g><path d="M 10.71875 0.46875 C 9.238281 0.46875 7.941406 0.25 6.828125 -0.1875 C 5.722656 -0.632812 4.796875 -1.273438 4.046875 -2.109375 C 3.296875 -2.941406 2.722656 -3.929688 2.328125 -5.078125 C 1.941406 -6.234375 1.75 -7.515625 1.75 -8.921875 C 1.75 -10.378906 1.9375 -11.710938 2.3125 -12.921875 C 2.695312 -14.140625 3.257812 -15.191406 4 -16.078125 C 4.738281 -16.972656 5.640625 -17.671875 6.703125 -18.171875 C 7.773438 -18.671875 9.003906 -18.921875 10.390625 -18.921875 C 11.628906 -18.921875 12.738281 -18.710938 13.71875 -18.296875 C 14.707031 -17.878906 15.550781 -17.253906 16.25 -16.421875 C 16.957031 -15.585938 17.488281 -14.539062 17.84375 -13.28125 C 18.207031 -12.019531 18.351562 -10.53125 18.28125 -8.8125 L 3.8125 -8.71875 L 3.8125 -10.921875 L 16.25 -11.03125 L 15.171875 -9.53125 C 15.296875 -11.007812 15.160156 -12.234375 14.765625 -13.203125 C 14.367188 -14.179688 13.796875 -14.921875 13.046875 -15.421875 C 12.296875 -15.921875 11.410156 -16.171875 10.390625 -16.171875 C 9.296875 -16.171875 8.335938 -15.882812 7.515625 -15.3125 C 6.691406 -14.738281 6.050781 -13.914062 5.59375 -12.84375 C 5.144531 -11.78125 4.921875 -10.488281 4.921875 -8.96875 C 4.921875 -6.769531 5.414062 -5.09375 6.40625 -3.9375 C 7.394531 -2.789062 8.84375 -2.21875 10.75 -2.21875 C 11.507812 -2.21875 12.164062 -2.3125 12.71875 -2.5 C 13.28125 -2.6875 13.757812 -2.941406 14.15625 -3.265625 C 14.550781 -3.585938 14.875 -3.96875 15.125 -4.40625 C 15.375 -4.84375 15.554688 -5.3125 15.671875 -5.8125 L 18.5625 -5.21875 C 18.351562 -4.332031 18.03125 -3.535156 17.59375 -2.828125 C 17.164062 -2.128906 16.625 -1.535156 15.96875 -1.046875 C 15.320312 -0.566406 14.554688 -0.195312 13.671875 0.0625 C 12.796875 0.332031 11.8125 0.46875 10.71875 0.46875 Z M 10.71875 0.46875 "/></g></g></g><g fill="#000000" fill-opacity="1"><g transform="translate(209.537948, 198.581173)"><g><path d="M 5.78125 0 L 0.859375 -18.453125 L 4.21875 -18.453125 L 7.859375 -2.78125 L 8.390625 -2.78125 L 12.3125 -18.453125 L 16.5 -18.453125 L 20.390625 -2.78125 L 20.890625 -2.78125 L 24.5625 -18.453125 L 27.890625 -18.453125 L 22.921875 0 L 18.390625 0 L 14.5625 -15.609375 L 14.171875 -15.609375 L 10.359375 0 Z M 5.78125 0 "/></g></g></g><g fill="#000000" fill-opacity="1"><g transform="translate(237.103052, 198.581173)"><g><path d="M 2.71875 0 L 2.71875 -18.453125 L 5.671875 -18.453125 L 5.359375 -11.859375 L 5.921875 -11.859375 C 6.140625 -13.304688 6.472656 -14.550781 6.921875 -15.59375 C 7.378906 -16.644531 7.988281 -17.460938 8.75 -18.046875 C 9.507812 -18.628906 10.425781 -18.921875 11.5 -18.921875 C 11.757812 -18.921875 12.039062 -18.894531 12.34375 -18.84375 C 12.65625 -18.800781 13.015625 -18.71875 13.421875 -18.59375 L 13.25 -15.171875 C 12.882812 -15.316406 12.523438 -15.425781 12.171875 -15.5 C 11.816406 -15.570312 11.472656 -15.609375 11.140625 -15.609375 C 10.210938 -15.609375 9.410156 -15.296875 8.734375 -14.671875 C 8.054688 -14.054688 7.492188 -13.226562 7.046875 -12.1875 C 6.609375 -11.15625 6.25 -9.972656 5.96875 -8.640625 L 5.96875 0 Z M 2.71875 0 "/></g></g></g><g fill="#000000" fill-opacity="1"><g transform="translate(249.992945, 198.581173)"><g><path d="M 2.75 0 L 2.75 -18.453125 L 6 -18.453125 L 6 0 Z M 4.359375 -21.59375 C 3.617188 -21.59375 3.054688 -21.75 2.671875 -22.0625 C 2.296875 -22.375 2.109375 -22.828125 2.109375 -23.421875 C 2.109375 -24.035156 2.296875 -24.5 2.671875 -24.8125 C 3.054688 -25.125 3.617188 -25.28125 4.359375 -25.28125 C 5.117188 -25.28125 5.6875 -25.125 6.0625 -24.8125 C 6.445312 -24.5 6.640625 -24.035156 6.640625 -23.421875 C 6.640625 -22.828125 6.445312 -22.375 6.0625 -22.0625 C 5.6875 -21.75 5.117188 -21.59375 4.359375 -21.59375 Z M 4.359375 -21.59375 "/></g></g></g><g fill="#000000" fill-opacity="1"><g transform="translate(257.562638, 198.581173)"><g><path d="M 8.5 0.359375 C 7.664062 0.359375 6.929688 0.242188 6.296875 0.015625 C 5.671875 -0.210938 5.140625 -0.554688 4.703125 -1.015625 C 4.273438 -1.484375 3.953125 -2.066406 3.734375 -2.765625 C 3.523438 -3.460938 3.421875 -4.300781 3.421875 -5.28125 L 3.421875 -15.75 L 0.71875 -15.75 L 0.75 -18.421875 L 2.390625 -18.421875 C 3.015625 -18.441406 3.460938 -18.554688 3.734375 -18.765625 C 4.003906 -18.984375 4.175781 -19.367188 4.25 -19.921875 L 4.5625 -22.59375 L 6.609375 -22.59375 L 6.609375 -18.453125 L 11.859375 -18.453125 L 11.859375 -15.671875 L 6.609375 -15.671875 L 6.609375 -5.359375 C 6.609375 -4.359375 6.835938 -3.660156 7.296875 -3.265625 C 7.765625 -2.867188 8.378906 -2.671875 9.140625 -2.671875 C 9.585938 -2.671875 10.050781 -2.726562 10.53125 -2.84375 C 11.007812 -2.96875 11.484375 -3.195312 11.953125 -3.53125 L 11.953125 -0.28125 C 11.285156 -0.0390625 10.660156 0.125 10.078125 0.21875 C 9.503906 0.3125 8.976562 0.359375 8.5 0.359375 Z M 8.5 0.359375 "/></g></g></g><g fill="#000000" fill-opacity="1"><g transform="translate(269.524177, 198.581173)"><g><path d="M 10.71875 0.46875 C 9.238281 0.46875 7.941406 0.25 6.828125 -0.1875 C 5.722656 -0.632812 4.796875 -1.273438 4.046875 -2.109375 C 3.296875 -2.941406 2.722656 -3.929688 2.328125 -5.078125 C 1.941406 -6.234375 1.75 -7.515625 1.75 -8.921875 C 1.75 -10.378906 1.9375 -11.710938 2.3125 -12.921875 C 2.695312 -14.140625 3.257812 -15.191406 4 -16.078125 C 4.738281 -16.972656 5.640625 -17.671875 6.703125 -18.171875 C 7.773438 -18.671875 9.003906 -18.921875 10.390625 -18.921875 C 11.628906 -18.921875 12.738281 -18.710938 13.71875 -18.296875 C 14.707031 -17.878906 15.550781 -17.253906 16.25 -16.421875 C 16.957031 -15.585938 17.488281 -14.539062 17.84375 -13.28125 C 18.207031 -12.019531 18.351562 -10.53125 18.28125 -8.8125 L 3.8125 -8.71875 L 3.8125 -10.921875 L 16.25 -11.03125 L 15.171875 -9.53125 C 15.296875 -11.007812 15.160156 -12.234375 14.765625 -13.203125 C 14.367188 -14.179688 13.796875 -14.921875 13.046875 -15.421875 C 12.296875 -15.921875 11.410156 -16.171875 10.390625 -16.171875 C 9.296875 -16.171875 8.335938 -15.882812 7.515625 -15.3125 C 6.691406 -14.738281 6.050781 -13.914062 5.59375 -12.84375 C 5.144531 -11.78125 4.921875 -10.488281 4.921875 -8.96875 C 4.921875 -6.769531 5.414062 -5.09375 6.40625 -3.9375 C 7.394531 -2.789062 8.84375 -2.21875 10.75 -2.21875 C 11.507812 -2.21875 12.164062 -2.3125 12.71875 -2.5 C 13.28125 -2.6875 13.757812 -2.941406 14.15625 -3.265625 C 14.550781 -3.585938 14.875 -3.96875 15.125 -4.40625 C 15.375 -4.84375 15.554688 -5.3125 15.671875 -5.8125 L 18.5625 -5.21875 C 18.351562 -4.332031 18.03125 -3.535156 17.59375 -2.828125 C 17.164062 -2.128906 16.625 -1.535156 15.96875 -1.046875 C 15.320312 -0.566406 14.554688 -0.195312 13.671875 0.0625 C 12.796875 0.332031 11.8125 0.46875 10.71875 0.46875 Z M 10.71875 0.46875 "/></g></g></g></svg>