<svg xmlns="http://www.w3.org/2000/svg" xmlns:xlink="http://www.w3.org/1999/xlink" width="500" zoomAndPan="magnify" viewBox="0 0 375 374.999991" height="500" preserveAspectRatio="xMidYMid meet" version="1.0"><defs><clipPath id="e5bad43839"><path d="M 89 70.464844 L 210 70.464844 L 210 202 L 89 202 Z M 89 70.464844 " clip-rule="nonzero"/></clipPath><clipPath id="4b661f55c9"><path d="M 63 147 L 354.703125 147 L 354.703125 247.464844 L 63 247.464844 Z M 63 147 " clip-rule="nonzero"/></clipPath></defs><g clip-path="url(#e5bad43839)"><path fill="#121b54" d="M 150.773438 164.957031 L 165.148438 140.054688 L 174.589844 156.40625 C 185.78125 152.910156 197.488281 149.925781 209.625 147.496094 L 165.148438 70.464844 L 114.089844 158.898438 L 89.652344 201.230469 C 106.238281 186.914062 126.976562 174.664062 150.773438 164.957031 " fill-opacity="1" fill-rule="nonzero"/></g><g clip-path="url(#4b661f55c9)"><path fill="#121b54" d="M 323.980469 149.164062 C 203.90625 139.03125 94.339844 181.382812 63.035156 247.332031 L 103.214844 247.332031 C 124.265625 222.96875 154.449219 201.363281 191.070312 184.953125 L 197.429688 195.964844 L 227.085938 247.332031 L 267.265625 247.332031 L 223.910156 172.242188 C 244.636719 165.398438 266.875 160.125 290.273438 156.777344 C 312.203125 153.640625 333.679688 152.429688 354.339844 152.882812 C 344.410156 151.3125 334.296875 150.03125 323.980469 149.164062 " fill-opacity="1" fill-rule="nonzero"/></g></svg>